<svg width="40" height="40" viewBox="0 0 40 40" fill="none" xmlns="http://www.w3.org/2000/svg">
<path d="M35.992 10.7856H21.4133L30.7017 1.42429L29.2884 0L19.5002 9.865L9.71213 0L8.29883 1.42429L17.5872 10.7856H4.00803C2.35487 10.7856 1.00952 12.1409 1.00952 13.8081V36.9775C1.00952 38.6437 2.35487 40 4.00803 40H35.9921C37.6452 40 38.9905 38.6446 38.9905 36.9775V13.8081C38.9905 12.1419 37.6452 10.7856 35.992 10.7856ZM36.9915 36.9775C36.9915 37.5332 36.5428 37.985 35.9921 37.985H4.00803C3.45731 37.985 3.00855 37.5332 3.00855 36.9775V13.8081C3.00855 13.2523 3.45731 12.8006 4.00803 12.8006H35.9921C36.5428 12.8006 36.9915 13.2524 36.9915 13.8081V36.9775ZM30.9945 15.8231H9.00551C7.35235 15.8231 6.007 17.1783 6.007 18.8455V31.941C6.007 33.6072 7.35235 34.9635 9.00551 34.9635H30.9945C32.6477 34.9635 33.993 33.6081 33.993 31.941V18.8445C33.993 17.1784 32.6476 15.8231 30.9945 15.8231ZM31.9939 31.941C31.9939 32.4968 31.5452 32.9485 30.9945 32.9485H9.00551C8.45479 32.9485 8.00603 32.4968 8.00603 31.941V18.8445C8.00603 18.2888 8.45479 17.837 9.00551 17.837H30.9945C31.5452 17.837 31.9939 18.2888 31.9939 18.8445V31.941Z" fill="#F5F5F5"/>
</svg>
