<svg width="40" height="40" viewBox="0 0 40 40" fill="none" xmlns="http://www.w3.org/2000/svg">
<g clip-path="url(#clip0_250_196)">
<path d="M17.3398 12.4363L16.7937 12.4394C16.3707 12.4394 16.0277 12.7824 16.0277 13.2054V18.0415C16.0277 18.4653 16.3708 18.8075 16.7937 18.8075L17.3398 18.8106C22.5034 18.8106 25.1215 17.7385 25.1215 15.6235C25.1208 13.5084 22.5027 12.4363 17.3398 12.4363ZM17.5597 17.2778V13.9699C21.7222 13.9976 23.5887 14.8143 23.5887 15.6242C23.5887 16.4333 21.7222 17.2501 17.5597 17.2778ZM28.2825 7.21646C25.766 6.01132 22.7542 5.84518 19.874 5.84518L18.0704 5.85283L9.90186 5.82283C9.67729 5.81204 9.50272 5.90282 9.35887 6.04661C9.21429 6.1904 9.13351 6.38576 9.13351 6.58882V32.4151C9.13351 32.8381 9.47651 33.1811 9.89951 33.1811H16.7945C17.2175 33.1811 17.5605 32.8381 17.5605 32.4151V25.1011C17.8043 25.1019 18.0597 25.1041 18.3242 25.1072C18.7211 25.1111 19.1402 25.1149 19.5748 25.1149C23.5911 25.1149 32.9978 25.1149 32.9978 15.5511C32.9978 11.5203 31.4112 8.71617 28.2825 7.21646ZM19.574 23.582C19.1449 23.582 18.7303 23.5782 18.3381 23.5744C17.9789 23.5705 17.6367 23.5682 17.2713 23.5689L16.7468 23.6012C16.3423 23.6259 16.0278 23.9612 16.0278 24.3657V31.6483H10.6656V7.35796L18.0682 7.38489L19.8741 7.37718C25.8946 7.37718 31.4659 8.36703 31.4659 15.5503C31.4658 22.6084 25.7506 23.582 19.574 23.582ZM35.1937 0H4.8066C2.15626 0 0.000488281 2.15577 0.000488281 4.80611V35.1932C0.000488281 37.8434 2.15626 40 4.8066 40H35.1937C37.8439 40 39.9997 37.8442 39.9997 35.1932V4.80611C39.9997 2.15577 37.8439 0 35.1937 0ZM38.4676 35.1923C38.4676 36.9974 36.9986 38.4672 35.1936 38.4672H4.8066C3.00154 38.4672 1.53255 36.9982 1.53255 35.1923V4.80611C1.53255 3.00105 3.00076 1.53206 4.8066 1.53206H35.1937C36.9987 1.53206 38.4677 3.00027 38.4677 4.80611V35.1923H38.4676Z" fill="#F5F5F5"/>
</g>
<defs>
<clipPath id="clip0_250_196">
<rect width="40" height="40" fill="white"/>
</clipPath>
</defs>
</svg>
