<svg width="40" height="40" viewBox="0 0 40 40" fill="none" xmlns="http://www.w3.org/2000/svg">
<path d="M38.75 33.75H1.25C0.56 33.75 0 34.31 0 35C0 35.69 0.56 36.25 1.25 36.25H38.75C39.44 36.25 40 35.69 40 35C40 34.31 39.44 33.75 38.75 33.75ZM21.25 8.75V6.25H23.75C24.44 6.25 25 5.69 25 5C25 4.31 24.44 3.75 23.75 3.75H16.25C15.56 3.75 15 4.31 15 5C15 5.69 15.56 6.25 16.25 6.25H18.75C18.75 6.25 18.7412 8.85248 18.75 8.75C8.29 9.39876 0 18.1263 0 28.75C0 29.765 0 29.31 0 30C0 30.69 0.56 31.25 1.25 31.25H38.75C39.44 31.25 40 30.69 40 30C40 29.31 40 29.8437 40 28.75C40 18.1263 31.71 9.39876 21.25 8.75ZM2.5 28.75C2.5 19.085 10.335 11.25 20 11.25C29.665 11.25 37.5 19.085 37.5 28.75H2.5Z" fill="#F5F5F5"/>
</svg>
