<svg width="198" height="66" viewBox="0 0 198 66" fill="none" xmlns="http://www.w3.org/2000/svg">
<path d="M100.321 55.105H71.224L69.8295 51.5603H98.9789L100.321 55.105Z" fill="#FF8049"/>
<path d="M0 55.1499C1.46197 53.0087 39.9155 0 39.9155 0L68.3077 60.5749H103.635L105.861 66H66.0735L48.6348 28.7265L32.973 51.5692H53.4031L55.4423 55.1229L0 55.1499Z" fill="#FF8049"/>
<path d="M77.1045 17.2745V19.2905H73.0005V27.1025H70.3185V17.2745H77.1045ZM87.6664 22.1705C87.6664 22.9865 87.5524 23.7125 87.3244 24.3485C87.1084 24.9845 86.7904 25.5245 86.3704 25.9685C85.9624 26.4005 85.4644 26.7305 84.8764 26.9585C84.2884 27.1745 83.6224 27.2825 82.8784 27.2825C82.1944 27.2825 81.5584 27.1745 80.9704 26.9585C80.3944 26.7305 79.8964 26.4005 79.4764 25.9685C79.0564 25.5245 78.7264 24.9845 78.4864 24.3485C78.2584 23.7125 78.1444 22.9865 78.1444 22.1705C78.1444 21.0785 78.3364 20.1605 78.7204 19.4165C79.1044 18.6605 79.6564 18.0845 80.3764 17.6885C81.0964 17.2925 81.9484 17.0945 82.9324 17.0945C83.8564 17.0945 84.6724 17.2925 85.3804 17.6885C86.0884 18.0845 86.6464 18.6605 87.0544 19.4165C87.4624 20.1605 87.6664 21.0785 87.6664 22.1705ZM80.8804 22.1705C80.8804 22.8185 80.9464 23.3645 81.0784 23.8085C81.2224 24.2405 81.4444 24.5705 81.7444 24.7985C82.0444 25.0145 82.4344 25.1225 82.9144 25.1225C83.3944 25.1225 83.7784 25.0145 84.0664 24.7985C84.3664 24.5705 84.5824 24.2405 84.7144 23.8085C84.8584 23.3645 84.9304 22.8185 84.9304 22.1705C84.9304 21.5225 84.8584 20.9825 84.7144 20.5505C84.5824 20.1185 84.3664 19.7945 84.0664 19.5785C83.7664 19.3625 83.3764 19.2545 82.8964 19.2545C82.1884 19.2545 81.6724 19.5005 81.3484 19.9925C81.0364 20.4725 80.8804 21.1985 80.8804 22.1705ZM93.879 27.2825C92.907 27.2825 92.079 27.1085 91.395 26.7605C90.711 26.4005 90.189 25.8485 89.829 25.1045C89.469 24.3605 89.289 23.4065 89.289 22.2425C89.289 21.0425 89.493 20.0645 89.901 19.3085C90.309 18.5525 90.873 17.9945 91.593 17.6345C92.325 17.2745 93.165 17.0945 94.113 17.0945C94.785 17.0945 95.367 17.1605 95.859 17.2925C96.363 17.4245 96.801 17.5805 97.173 17.7605L96.381 19.8305C95.961 19.6625 95.565 19.5245 95.193 19.4165C94.833 19.3085 94.473 19.2545 94.113 19.2545C93.645 19.2545 93.255 19.3685 92.943 19.5965C92.631 19.8125 92.397 20.1425 92.241 20.5865C92.097 21.0185 92.025 21.5645 92.025 22.2245C92.025 22.8725 92.103 23.4125 92.259 23.8445C92.427 24.2645 92.667 24.5825 92.979 24.7985C93.291 25.0025 93.669 25.1045 94.113 25.1045C94.677 25.1045 95.175 25.0325 95.607 24.8885C96.039 24.7325 96.459 24.5225 96.867 24.2585V26.5445C96.459 26.8085 96.027 26.9945 95.571 27.1025C95.127 27.2225 94.563 27.2825 93.879 27.2825ZM107.265 19.2905H104.043V27.1025H101.361V19.2905H98.1391V17.2745H107.265V19.2905ZM111.67 21.1625C111.67 21.3665 111.658 21.6185 111.634 21.9185C111.622 22.2185 111.604 22.5245 111.58 22.8365C111.568 23.1485 111.55 23.4245 111.526 23.6645C111.502 23.9045 111.484 24.0725 111.472 24.1685L116.008 17.2745H119.23V27.1025H116.638V23.1785C116.638 22.8545 116.65 22.5005 116.674 22.1165C116.698 21.7205 116.722 21.3545 116.746 21.0185C116.782 20.6705 116.806 20.4065 116.818 20.2265L112.3 27.1025H109.078V17.2745H111.67V21.1625ZM124.715 17.2745V21.0545H128.459V17.2745H131.141V27.1025H128.459V23.0525H124.715V27.1025H122.033V17.2745H124.715ZM136.543 21.1625C136.543 21.3665 136.531 21.6185 136.507 21.9185C136.495 22.2185 136.477 22.5245 136.453 22.8365C136.441 23.1485 136.423 23.4245 136.399 23.6645C136.375 23.9045 136.357 24.0725 136.345 24.1685L140.881 17.2745H144.103V27.1025H141.511V23.1785C141.511 22.8545 141.523 22.5005 141.547 22.1165C141.571 21.7205 141.595 21.3545 141.619 21.0185C141.655 20.6705 141.679 20.4065 141.691 20.2265L137.173 27.1025H133.951V17.2745H136.543V21.1625ZM149.264 20.8745C149.264 21.2945 149.366 21.6125 149.57 21.8285C149.786 22.0445 150.08 22.1525 150.452 22.1525C150.968 22.1525 151.448 22.0985 151.892 21.9905C152.336 21.8705 152.78 21.7145 153.224 21.5225V17.2745H155.906V27.1025H153.224V23.1965C152.804 23.4245 152.324 23.6345 151.784 23.8265C151.244 24.0065 150.632 24.0965 149.948 24.0965C148.928 24.0965 148.112 23.8325 147.5 23.3045C146.888 22.7765 146.582 21.9845 146.582 20.9285V17.2745H149.264V20.8745ZM161.401 17.2745V21.0545H165.145V17.2745H167.827V27.1025H165.145V23.0525H161.401V27.1025H158.719V17.2745H161.401ZM170.637 27.1025V17.2745H173.319V21.0725H174.615C175.623 21.0725 176.451 21.1805 177.099 21.3965C177.747 21.6005 178.227 21.9185 178.539 22.3505C178.863 22.7825 179.025 23.3225 179.025 23.9705C179.025 24.6065 178.875 25.1585 178.575 25.6265C178.287 26.0945 177.825 26.4605 177.189 26.7245C176.565 26.9765 175.737 27.1025 174.705 27.1025H170.637ZM174.561 25.2485C175.089 25.2485 175.515 25.1525 175.839 24.9605C176.175 24.7685 176.343 24.4505 176.343 24.0065C176.343 23.6225 176.187 23.3465 175.875 23.1785C175.575 23.0105 175.125 22.9265 174.525 22.9265H173.319V25.2485H174.561ZM180.447 27.1025V17.2745H183.129V27.1025H180.447ZM195.344 13.0445C195.284 13.6685 195.11 14.2205 194.822 14.7005C194.534 15.1685 194.084 15.5345 193.472 15.7985C192.86 16.0625 192.038 16.1945 191.006 16.1945C189.95 16.1945 189.122 16.0685 188.522 15.8165C187.934 15.5525 187.514 15.1865 187.262 14.7185C187.01 14.2505 186.86 13.6925 186.812 13.0445H189.206C189.266 13.7045 189.434 14.1425 189.71 14.3585C189.986 14.5745 190.436 14.6825 191.06 14.6825C191.576 14.6825 191.996 14.5685 192.32 14.3405C192.656 14.1005 192.854 13.6685 192.914 13.0445H195.344ZM188.522 21.1625C188.522 21.3665 188.51 21.6185 188.486 21.9185C188.474 22.2185 188.456 22.5245 188.432 22.8365C188.42 23.1485 188.402 23.4245 188.378 23.6645C188.354 23.9045 188.336 24.0725 188.324 24.1685L192.86 17.2745H196.082V27.1025H193.49V23.1785C193.49 22.8545 193.502 22.5005 193.526 22.1165C193.55 21.7205 193.574 21.3545 193.598 21.0185C193.634 20.6705 193.658 20.4065 193.67 20.2265L189.152 27.1025H185.93V17.2745H188.522V21.1625Z" fill="#F5F5F5"/>
<path d="M76.8922 32.8496H79.8442L75.9562 37.5656L80.1862 42.6776H77.1442L73.1302 37.6916V42.6776H70.4482V32.8496H73.1302V37.6196L76.8922 32.8496ZM90.1692 37.7456C90.1692 38.5616 90.0552 39.2876 89.8272 39.9236C89.6112 40.5596 89.2932 41.0996 88.8732 41.5436C88.4652 41.9756 87.9672 42.3056 87.3792 42.5336C86.7912 42.7496 86.1252 42.8576 85.3812 42.8576C84.6972 42.8576 84.0612 42.7496 83.4732 42.5336C82.8972 42.3056 82.3992 41.9756 81.9792 41.5436C81.5592 41.0996 81.2292 40.5596 80.9892 39.9236C80.7612 39.2876 80.6472 38.5616 80.6472 37.7456C80.6472 36.6536 80.8392 35.7356 81.2232 34.9916C81.6072 34.2356 82.1592 33.6596 82.8792 33.2636C83.5992 32.8676 84.4512 32.6696 85.4352 32.6696C86.3592 32.6696 87.1752 32.8676 87.8832 33.2636C88.5912 33.6596 89.1492 34.2356 89.5572 34.9916C89.9652 35.7356 90.1692 36.6536 90.1692 37.7456ZM83.3832 37.7456C83.3832 38.3936 83.4492 38.9396 83.5812 39.3836C83.7252 39.8156 83.9472 40.1456 84.2472 40.3736C84.5472 40.5896 84.9372 40.6976 85.4172 40.6976C85.8972 40.6976 86.2812 40.5896 86.5692 40.3736C86.8692 40.1456 87.0852 39.8156 87.2172 39.3836C87.3612 38.9396 87.4332 38.3936 87.4332 37.7456C87.4332 37.0976 87.3612 36.5576 87.2172 36.1256C87.0852 35.6936 86.8692 35.3696 86.5692 35.1536C86.2692 34.9376 85.8792 34.8296 85.3992 34.8296C84.6912 34.8296 84.1752 35.0756 83.8512 35.5676C83.5392 36.0476 83.3832 36.7736 83.3832 37.7456ZM104.77 32.8496V42.6776H102.268V37.8536C102.268 37.3736 102.274 36.9056 102.286 36.4496C102.31 35.9936 102.34 35.5736 102.376 35.1896H102.322L99.6037 42.6776H97.5877L94.8337 35.1716H94.7617C94.8097 35.5676 94.8397 35.9936 94.8517 36.4496C94.8757 36.8936 94.8877 37.3856 94.8877 37.9256V42.6776H92.3857V32.8496H96.1837L98.6317 39.5096L101.116 32.8496H104.77ZM116.501 32.8496V42.6776H113.819V34.8656H110.255V42.6776H107.573V32.8496H116.501ZM128.117 42.6776H125.435V34.8656H122.969C122.849 36.3056 122.699 37.5356 122.519 38.5556C122.351 39.5636 122.135 40.3856 121.871 41.0216C121.619 41.6576 121.295 42.1256 120.899 42.4256C120.503 42.7136 120.017 42.8576 119.441 42.8576C119.129 42.8576 118.847 42.8336 118.595 42.7856C118.343 42.7376 118.115 42.6656 117.911 42.5696V40.4276C118.043 40.4756 118.181 40.5176 118.325 40.5536C118.469 40.5896 118.619 40.6076 118.775 40.6076C118.943 40.6076 119.099 40.5416 119.243 40.4096C119.399 40.2776 119.543 40.0436 119.675 39.7076C119.819 39.3716 119.951 38.9096 120.071 38.3216C120.191 37.7336 120.299 36.9956 120.395 36.1076C120.503 35.2076 120.599 34.1216 120.683 32.8496H128.117V42.6776ZM134.967 32.6696C135.879 32.6696 136.659 32.8436 137.307 33.1916C137.967 33.5396 138.477 34.0436 138.837 34.7036C139.197 35.3636 139.377 36.1736 139.377 37.1336V38.4296H133.041C133.065 39.1856 133.287 39.7796 133.707 40.2116C134.139 40.6436 134.733 40.8596 135.489 40.8596C136.125 40.8596 136.701 40.7996 137.217 40.6796C137.733 40.5476 138.267 40.3496 138.819 40.0856V42.1556C138.339 42.3956 137.829 42.5696 137.289 42.6776C136.761 42.7976 136.119 42.8576 135.363 42.8576C134.379 42.8576 133.509 42.6776 132.753 42.3176C131.997 41.9456 131.403 41.3876 130.971 40.6436C130.539 39.8996 130.323 38.9636 130.323 37.8356C130.323 36.6836 130.515 35.7296 130.899 34.9736C131.295 34.2056 131.841 33.6296 132.537 33.2456C133.233 32.8616 134.043 32.6696 134.967 32.6696ZM134.985 34.5776C134.469 34.5776 134.037 34.7456 133.689 35.0816C133.353 35.4176 133.155 35.9396 133.095 36.6476H136.857C136.857 36.2516 136.785 35.8976 136.641 35.5856C136.509 35.2736 136.305 35.0276 136.029 34.8476C135.753 34.6676 135.405 34.5776 134.985 34.5776ZM147.996 32.8496H150.948L147.06 37.5656L151.29 42.6776H148.248L144.234 37.6916V42.6776H141.552V32.8496H144.234V37.6196L147.996 32.8496ZM156.341 42.8576C155.369 42.8576 154.541 42.6836 153.857 42.3356C153.173 41.9756 152.651 41.4236 152.291 40.6796C151.931 39.9356 151.751 38.9816 151.751 37.8176C151.751 36.6176 151.955 35.6396 152.363 34.8836C152.771 34.1276 153.335 33.5696 154.055 33.2096C154.787 32.8496 155.627 32.6696 156.575 32.6696C157.247 32.6696 157.829 32.7356 158.321 32.8676C158.825 32.9996 159.263 33.1556 159.635 33.3356L158.843 35.4056C158.423 35.2376 158.027 35.0996 157.655 34.9916C157.295 34.8836 156.935 34.8296 156.575 34.8296C156.107 34.8296 155.717 34.9436 155.405 35.1716C155.093 35.3876 154.859 35.7176 154.703 36.1616C154.559 36.5936 154.487 37.1396 154.487 37.7996C154.487 38.4476 154.565 38.9876 154.721 39.4196C154.889 39.8396 155.129 40.1576 155.441 40.3736C155.753 40.5776 156.131 40.6796 156.575 40.6796C157.139 40.6796 157.637 40.6076 158.069 40.4636C158.501 40.3076 158.921 40.0976 159.329 39.8336V42.1196C158.921 42.3836 158.489 42.5696 158.033 42.6776C157.589 42.7976 157.025 42.8576 156.341 42.8576Z" fill="#F5F5F5"/>
</svg>
