<svg width="48" height="48" viewBox="0 0 48 48" fill="none" xmlns="http://www.w3.org/2000/svg">
<path d="M24.2719 4.50039C13.305 4.35227 4.35186 13.3054 4.49998 24.2723C4.64623 34.7901 13.2103 43.3541 23.7281 43.5004C34.6969 43.6504 43.6481 34.6973 43.4981 23.7304C43.3537 13.2107 34.7897 4.64664 24.2719 4.50039ZM36.1237 35.1801C36.0864 35.2205 36.0406 35.2521 35.9897 35.2729C35.9387 35.2936 35.8838 35.3028 35.8289 35.3C35.774 35.2971 35.7203 35.2822 35.6718 35.2563C35.6233 35.2304 35.581 35.1941 35.5481 35.1501C34.7096 34.053 33.6826 33.1137 32.5153 32.376C30.1284 30.8441 27.104 30.0004 24 30.0004C20.8959 30.0004 17.8715 30.8441 15.4847 32.376C14.3174 33.1133 13.2904 34.0523 12.4519 35.1491C12.4189 35.1932 12.3767 35.2295 12.3282 35.2554C12.2796 35.2813 12.226 35.2962 12.1711 35.299C12.1161 35.3019 12.0613 35.2926 12.0103 35.2719C11.9593 35.2512 11.9136 35.2195 11.8762 35.1791C9.1253 32.2095 7.56701 28.3291 7.49998 24.2816C7.34717 15.1588 14.8331 7.52289 23.9597 7.50039C33.0862 7.47789 40.5 14.8888 40.5 24.0004C40.5031 28.1455 38.94 32.1387 36.1237 35.1801Z" fill="#F5F5F5"/>
<path d="M24 13.5C22.1513 13.5 20.4797 14.1928 19.2919 15.4519C18.1041 16.7109 17.5107 18.4519 17.6447 20.3203C17.9166 24 20.7675 27 24 27C27.2325 27 30.0779 24 30.3554 20.3212C30.4941 18.4706 29.9054 16.7456 28.6979 15.4631C27.5054 14.1975 25.8366 13.5 24 13.5Z" fill="#F5F5F5"/>
</svg>
